<?xml version="1.0" standalone="no"?>
<!DOCTYPE svg PUBLIC "-//W3C//DTD SVG 20010904//EN"
 "http://www.w3.org/TR/2001/REC-SVG-20010904/DTD/svg10.dtd">
<svg version="1.0" xmlns="http://www.w3.org/2000/svg"
 width="300.000000pt" height="300.000000pt" viewBox="0 0 300.000000 300.000000"
 preserveAspectRatio="xMidYMid meet">
<metadata>
Created by potrace 1.10, written by Peter Selinger 2001-2011
</metadata>
<g transform="translate(0.000000,300.000000) scale(0.100000,-0.100000)"
fill="#483d8b" stroke="none">
<path d="M1802 2689 c-28 -14 -51 -36 -67 -64 -24 -41 -25 -46 -25 -251 0
-198 2 -211 23 -248 31 -56 92 -86 174 -86 l63 0 0 -55 0 -55 -475 0 c-444 0
-476 1 -482 18 -41 120 -109 203 -201 245 -68 32 -207 31 -274 -2 -95 -46
-174 -140 -193 -228 -6 -29 -10 -33 -39 -33 -40 0 -93 -34 -123 -80 l-23 -34
2 -710 3 -711 24 -34 c13 -18 42 -42 65 -52 39 -18 92 -19 1246 -19 1154 0
1207 1 1246 19 23 10 52 34 65 52 l24 34 3 711 2 710 -23 34 c-40 61 -80 80
-163 80 l-74 0 0 55 0 55 65 0 c78 0 132 23 167 72 22 32 23 38 23 263 0 227
0 230 -24 264 -13 18 -42 42 -65 52 -38 17 -73 19 -471 19 -418 0 -431 -1
-473 -21z m886 -316 l2 -173 -410 0 -410 0 0 175 0 175 408 -2 407 -3 3 -172z
m-268 -388 l0 -55 -145 0 -145 0 0 55 0 55 145 0 145 0 0 -55z m265 -870 l0
-660 -1185 0 -1185 0 -3 650 c-1 358 0 656 3 663 3 10 246 12 1187 10 l1183
-3 0 -660z"/>
<path d="M1353 1681 c-86 -24 -129 -45 -211 -105 -109 -81 -187 -205 -216
-349 -20 -94 -20 -142 -1 -232 45 -212 220 -398 426 -451 134 -35 300 -16 423
48 90 48 204 165 250 258 38 79 66 186 66 258 0 67 -29 191 -60 257 -65 136
-207 261 -347 306 -98 31 -237 35 -330 10z m300 -102 c81 -27 143 -67 205
-133 154 -163 177 -412 54 -602 -193 -298 -631 -298 -824 0 -146 226 -84 524
141 679 111 76 291 100 424 56z"/>
<path d="M1395 1380 c-61 -24 -126 -85 -157 -149 -34 -68 -32 -178 4 -246 54
-103 145 -159 258 -159 113 0 204 56 258 159 36 68 38 178 4 246 -68 139 -226
203 -367 149z"/>
</g>
</svg>
